<!-- Original Django Color #004D40 -->
<svg width="725" height="650" viewBox="0 0 725 650" fill="none" xmlns="http://www.w3.org/2000/svg">
<g clip-path="url(#clip0)">
<path fill-rule="evenodd" clip-rule="evenodd" d="M644.726 232.161C647.28 231.949 649.783 233.093 651.292 235.161C658.762 245.387 681.239 276.165 688.712 286.393C690.225 288.459 690.514 291.139 689.472 293.42C684.321 304.696 668.819 338.634 663.669 349.91C662.627 352.191 660.412 353.728 657.858 353.94C645.238 354.989 607.258 358.152 594.634 359.2C592.08 359.413 589.577 358.269 588.068 356.201C580.598 345.975 558.121 315.197 550.648 304.969C549.139 302.901 548.849 300.225 549.891 297.943C555.042 286.667 570.544 252.729 575.695 241.453C576.737 239.172 578.951 237.636 581.505 237.423C594.123 236.373 632.109 233.212 644.726 232.161Z" fill="#00549D"/>
<path fill-rule="evenodd" clip-rule="evenodd" d="M549.475 301.263C549.165 299.833 549.514 298.769 550.136 297.407C555.257 286.197 570.67 252.454 575.792 241.241C576.828 238.971 579.034 237.446 581.578 237.24C594.148 236.207 631.981 233.096 644.552 232.06C647.097 231.851 649.832 233.129 651.34 235.19C658.79 245.367 681.173 275.809 688.623 285.986C689.223 286.811 689.59 287.64 689.811 288.614L549.475 301.263Z" fill="#0086D4"/>
<path fill-rule="evenodd" clip-rule="evenodd" d="M638.828 253.764C661.964 264.332 672.167 291.693 661.599 314.828C651.031 337.964 623.67 348.167 600.535 337.599C577.399 327.031 567.196 299.67 577.764 276.535C588.332 253.399 615.693 243.197 638.828 253.764ZM629.255 274.723C640.821 280.006 645.925 293.686 640.64 305.255C635.357 316.821 621.674 321.924 610.108 316.64C598.542 311.357 593.44 297.674 598.723 286.108C604.007 274.539 617.686 269.438 629.255 274.723Z" fill="white"/>
<path fill-rule="evenodd" clip-rule="evenodd" d="M689.791 288.641C690.676 290.793 689.65 292.959 688.866 294.674C683.676 306.037 668.818 338.312 663.751 349.73C663.221 350.921 662.259 351.991 661.242 352.663L618.463 295.125L689.791 288.641Z" fill="#0075C0"/>
<path fill-rule="evenodd" clip-rule="evenodd" d="M644.743 296.273L650.731 299.008L642.526 316.973L636.538 314.237L644.743 296.273ZM665.702 305.846L671.69 308.581L663.484 326.546L657.496 323.811L665.702 305.846Z" fill="white"/>
<path fill-rule="evenodd" clip-rule="evenodd" d="M636.02 299.526L653.984 307.731L651.249 313.72L633.285 305.514L636.02 299.526ZM656.979 309.099L674.943 317.305L672.208 323.293L654.243 315.087L656.979 309.099Z" fill="white"/>
</g>
<path d="M332.47 125C316.92 125.05 306.14 126.42 293.11 128.67C254.63 135.37 247.62 149.44 247.62 175.37V215H337.62V235H244.2H200.7C174.34 235 151.27 247.42 143.96 277.19C135.7 311.36 135.33 332.76 143.96 368.44C150.51 395.05 164.94 415 191.31 415H227.63V363.96C227.63 334.3 254.49 305 285.27 305H357.63C382.86 305 407.63 286.38 407.63 261.23V175.37C407.63 150.98 390.04 132.74 365.45 128.65C366.06 128.59 347.89 124.94 332.47 125ZM282.63 165C290.84 165 297.63 171.77 297.63 180.02C297.63 188.35 290.84 195 282.63 195C274.26 195 267.63 188.36 267.63 180.02C267.63 171.8 274.26 165 282.63 165Z" fill="#0277BD"/>
<path d="M322.78 505C338.33 504.95 349.11 503.58 362.14 501.33C400.62 494.63 407.63 480.56 407.63 454.63V415H317.63V395H411.06H454.56C480.92 395 503.99 382.58 511.3 352.81C519.56 318.64 519.93 297.24 511.3 261.56C504.74 234.95 490.31 215 463.94 215H427.62V266.04C427.62 295.7 400.76 325 369.98 325H297.62C272.39 325 247.62 343.62 247.62 368.77V454.63C247.62 479.02 265.21 497.26 289.8 501.35C289.19 501.41 307.36 505.06 322.78 505ZM372.63 465C364.42 465 357.63 458.23 357.63 449.98C357.63 441.65 364.42 435 372.63 435C381 435 387.63 441.64 387.63 449.98C387.63 458.2 380.99 465 372.63 465Z" fill="#FFC107"/>
<g clip-path="url(#clip1)">
<path d="M610.577 452.152L462.816 418.631L442.332 569.35L499.231 600.536L564.018 596.955L610.577 452.152Z" fill="#E65100"/>
<path d="M533.738 448.429L502.288 587.064L554.117 584.199L593.277 461.936L533.738 448.429Z" fill="#FF6D00"/>
<path d="M516.978 522.31L520.922 504.926L558.296 513.405L543.916 562.693L507.02 566.203L511.161 547.951L530.359 545.908L536.1 526.648L516.978 522.31V522.31ZM563.544 496.317L568.791 479.229L528.809 470.159L524.865 487.542L563.544 496.317Z" fill="white"/>
<path d="M511.161 547.951L507.02 566.203L475.251 547.115L478.935 522.818L496.319 526.762L494.723 537.824L511.161 547.951ZM503.57 482.711L524.865 487.542L528.809 470.159L489.261 461.187L480.472 514.028L516.978 522.31L520.921 504.926L500.93 500.391L503.57 482.711Z" fill="#EEEEEE"/>
</g>
<g clip-path="url(#clip2)">
<path d="M146.732 451.4L53.9299 518.201L128.919 605.109L174.991 588.52L205.344 550.096L146.732 451.4Z" fill="#0277BD"/>
<path d="M106.225 492.989L168.9 580.059L193.183 549.32L143.619 466.072L106.225 492.989Z" fill="#039BE5"/>
<path d="M140.887 488.758L116.049 506.637L123.908 517.554L137.282 507.927L144.322 519.435L131.766 528.472L139.625 539.39L151.635 530.745L159.658 543.617L151.217 555.494L159.469 566.958L175.924 544.34L155.24 511.576L140.887 488.758Z" fill="white"/>
<path d="M116.049 506.637L123.908 517.554L99.6153 535.041L90.9376 524.712L116.049 506.637ZM119.211 537.51L127.616 548.035L139.625 539.39L131.766 528.472L119.211 537.51ZM132.091 553.101L121.173 560.96L132.798 575.383L159.469 566.958L151.217 555.494L137.276 559.728L132.091 553.101Z" fill="#EEEEEE"/>
</g>
<g clip-path="url(#clip3)">
<path d="M73.8095 226.283L31.3262 80.8094L176.8 38.3261L219.283 183.8L73.8095 226.283Z" fill="#FFD600"/>
<path d="M158.242 161.924C162.364 165.649 166.674 169.114 173.111 167.234C178.518 165.655 180.57 162.139 179.484 158.421C178.185 153.972 174.79 153.249 168.085 152.396L164.418 151.958C153.841 150.714 146.121 147.539 143.035 136.972C140.191 127.234 145.482 117.645 157.132 114.243C165.428 111.821 172.227 112.953 178.724 119.222L170.462 128.682C167.061 125.342 164.186 124.476 160.44 125.57C156.617 126.686 154.901 129.806 155.822 132.958C156.959 136.853 159.844 137.721 166.145 138.499L169.812 138.937C182.284 140.421 189.948 143.419 193.116 154.265C196.529 165.952 189.17 175.052 176.78 178.67C164.661 182.209 156.004 178.137 149.974 171.728L158.242 161.924ZM111.52 175.927C114.634 178.991 118.564 180.9 123.033 179.595C127.309 178.347 129.276 175.939 127.359 169.372L114.863 126.583L128.331 122.65L141.431 167.508C145.405 181.114 139.321 189.609 127.796 192.975C117.382 196.016 107.806 191.156 102.829 185.496L111.52 175.927Z" fill="#000001"/>
</g>
<g clip-path="url(#clip4)">
<path fill-rule="evenodd" clip-rule="evenodd" d="M431.121 58.8562L411.388 95.5077C407.093 94.1451 404.891 93.3332 401.787 91.6619C392.494 86.6472 389.888 79.8909 394.178 71.9236C398.312 64.246 406.127 62.0275 414.083 66.311C415.318 66.9758 416.205 67.577 417.186 68.483L424.337 55.2031L431.121 58.8562ZM413.925 74.5404C413.188 73.7699 412.508 73.2766 411.566 72.7694C407.717 70.6971 404.229 71.8434 402.015 75.956C399.86 79.9585 400.798 83.3124 404.696 85.4113C405.54 85.8654 406.249 86.1873 407.418 86.6262L413.925 74.5404V74.5404Z" fill="#fff"/>
<path fill-rule="evenodd" clip-rule="evenodd" d="M436.401 76.8245L426.074 96.0053C422.834 102.022 420.593 105.107 417.927 106.887C415.402 108.619 412.961 109.256 408.703 109.117L403.433 101.984C407.633 102.231 410.005 101.728 412.177 100.18C414.423 98.6114 416.346 95.867 419.877 89.3082L428.805 72.7271L436.404 76.8187L436.401 76.8245Z" fill="#fff"/>
<path d="M442.715 65.0981L435.112 61.005L430.879 68.868L438.481 72.9611L442.715 65.0981Z" fill="#fff"/>
<path fill-rule="evenodd" clip-rule="evenodd" d="M440.131 81.9359C444.285 82.1088 447.815 83.1007 451.249 84.9499C455.078 87.0113 457.027 89.4179 457.032 92.0748C457.036 93.561 456.432 95.1686 454.704 98.377L446.267 114.048C442.661 112.746 438.255 110.833 435.163 109.168C428.914 105.804 427.325 102.04 430.02 97.0349C432.935 91.6209 438.006 91.1249 447.582 95.2527L448.495 93.5573C449.249 92.1574 448.841 91.2835 446.96 90.2707C444.207 88.7883 440.672 87.9243 436.928 87.9053L440.131 81.9359ZM445.2 100.483C440 98.3222 437.964 98.265 436.884 100.271C436.076 101.772 436.618 102.972 438.653 104.068C439.766 104.667 440.836 105.116 442.419 105.647L445.2 100.483Z" fill="#fff"/>
<path fill-rule="evenodd" clip-rule="evenodd" d="M462.687 93.3962C467.75 94.548 471.678 95.9452 475.356 97.9254C479.176 99.9822 481.449 102.391 482.133 105.051C482.773 107.556 482.276 109.659 480.168 113.575L471.893 128.944L464.432 124.928L472.539 109.871C474.159 106.863 473.79 105.221 471.132 103.79C470.115 103.243 469.139 102.848 467.391 102.505L457.365 121.126L449.916 117.116L462.687 93.3962V93.3962Z" fill="#fff"/>
<path fill-rule="evenodd" clip-rule="evenodd" d="M473.54 134.056C475.446 136.899 477.762 138.984 480.582 140.502C485.57 143.187 488.433 142.96 491.09 138.025L491.172 137.874C489.291 137.826 487.63 137.335 485.662 136.276C478.99 132.683 477.239 125.957 481.062 118.857C485.811 110.037 494.698 108.396 505.808 114.377C509.071 116.134 511.899 118.11 515.142 120.835L509.525 125.026C507.714 123.535 509.393 124.876 507.945 123.906L507.509 124.715L505.845 128.043L503.614 132.304C503.092 133.391 502.524 134.446 502.002 135.533L500.863 137.649C497.282 144.3 495.427 146.427 492.413 148.128C488.011 150.625 482.9 150.285 477.069 147.145C474.101 145.547 471.775 143.715 469.683 141.221L473.54 134.056V134.056ZM500.756 119.718L500.51 119.585L499.959 119.289C498.508 118.444 496.559 117.91 494.962 118.03C492.572 118.108 490.597 119.519 489.135 122.235C487.049 126.11 487.736 129.34 491.095 131.149C492.133 131.707 493.084 131.961 494.224 132.19L494.525 131.631L495.665 129.515C496.155 128.605 496.648 127.57 497.218 126.512L499.094 122.909L500.428 120.315L500.751 119.715L500.756 119.718Z" fill="#fff"/>
<path fill-rule="evenodd" clip-rule="evenodd" d="M527.888 126.082C535.867 130.378 538.148 137.813 533.954 145.603C529.653 153.591 521.88 155.862 513.788 151.505C505.801 147.205 503.463 139.744 507.631 132.002C511.972 123.973 519.747 121.699 527.888 126.082ZM517.258 145.429C520.321 147.079 523.438 145.624 525.71 141.404C527.955 137.233 527.53 133.808 524.47 132.16C521.302 130.454 518.183 131.908 515.911 136.128C513.642 140.349 514.154 143.758 517.258 145.429Z" fill="#fff"/>
</g>
<defs>
<clipPath id="clip0">
<rect width="158" height="158" fill="white" transform="translate(580.646 191) rotate(24.5497)"/>
</clipPath>
<clipPath id="clip1">
<rect width="213.904" height="213.904" fill="white" transform="translate(437.324 390) rotate(12.7818)"/>
</clipPath>
<clipPath id="clip2">
<rect width="161.427" height="161.427" fill="white" transform="translate(25 518.307) rotate(-35.7473)"/>
</clipPath>
<clipPath id="clip3">
<rect width="202.067" height="202.067" fill="white" transform="translate(0 63.6444) rotate(-16.2796)"/>
</clipPath>
<clipPath id="clip4">
<rect width="158" height="158" fill="white" transform="translate(432.903) rotate(28.2987)"/>
</clipPath>
</defs>
</svg>
